<svg id="Layer_1" enable-background="new 0 0 24 24" height="512" viewBox="0 0 24 24" width="512" xmlns="http://www.w3.org/2000/svg"><circle cx="12" cy="12" fill="#2f80ed" r="12"/><path d="m12.7 12.4h-4.2c-.4 0-.7.3-.7.7s.3.7.7.7h4.2c.4 0 .7-.3.7-.7s-.3-.7-.7-.7zm2.8-2.5h-7c-.4 0-.7.3-.7.7s.3.7.7.7h7c.4 0 .7-.3.7-.7s-.3-.7-.7-.7zm1.8-4.9h-10.5c-1 0-1.8.8-1.8 1.8v10.5c0 1 .8 1.8 1.8 1.8h10.5c1 0 1.8-.8 1.8-1.8v-10.5c-.1-1-.9-1.8-1.8-1.8zm.3 12.3c0 .2-.1.4-.4.4h-10.4c-.2 0-.3-.1-.3-.4v-10.5c0-.2.1-.3.3-.3h10.5c.2 0 .4.1.4.3v10.5z" fill="#fff"/></svg>