<svg xmlns="http://www.w3.org/2000/svg" xmlns:xlink="http://www.w3.org/1999/xlink" width="512" zoomAndPan="magnify" viewBox="0 0 384 383.999986" height="512" preserveAspectRatio="xMidYMid meet" version="1.0"><path fill="#87a5be" d="M 254.65625 94.554688 C 246.964844 94.554688 240.734375 88.320312 240.734375 80.632812 C 240.734375 72.941406 246.964844 66.710938 254.65625 66.710938 C 262.332031 66.710938 268.578125 60.464844 268.578125 52.789062 C 268.578125 45.113281 262.332031 38.867188 254.65625 38.867188 C 246.964844 38.867188 240.734375 32.632812 240.734375 24.945312 C 240.734375 17.253906 246.964844 11.023438 254.65625 11.023438 C 277.6875 11.023438 296.421875 29.757812 296.421875 52.789062 C 296.421875 75.816406 277.6875 94.554688 254.65625 94.554688 Z M 254.65625 94.554688 " fill-opacity="1" fill-rule="nonzero"/><path fill="#87a5be" d="M 101.515625 94.554688 C 93.828125 94.554688 87.59375 88.320312 87.59375 80.632812 C 87.59375 72.941406 93.828125 66.710938 101.515625 66.710938 C 109.191406 66.710938 115.4375 60.464844 115.4375 52.789062 C 115.4375 45.113281 109.191406 38.867188 101.515625 38.867188 C 93.828125 38.867188 87.59375 32.632812 87.59375 24.945312 C 87.59375 17.253906 93.828125 11.023438 101.515625 11.023438 C 124.542969 11.023438 143.28125 29.757812 143.28125 52.789062 C 143.28125 75.816406 124.542969 94.554688 101.515625 94.554688 Z M 101.515625 94.554688 " fill-opacity="1" fill-rule="nonzero"/><path fill="#a5c3dc" d="M 352.109375 372.992188 L 31.90625 372.992188 C 16.527344 372.992188 4.0625 360.527344 4.0625 345.148438 L 4.0625 108.476562 L 379.953125 108.476562 L 379.953125 345.148438 C 379.953125 360.527344 367.488281 372.992188 352.109375 372.992188 Z M 352.109375 372.992188 " fill-opacity="1" fill-rule="nonzero"/><path fill="#d7e6f0" d="M 310.34375 372.992188 L 31.90625 372.992188 C 16.527344 372.992188 4.0625 360.527344 4.0625 345.148438 L 4.0625 108.476562 L 338.1875 108.476562 L 338.1875 345.148438 C 338.1875 360.527344 325.722656 372.992188 310.34375 372.992188 Z M 310.34375 372.992188 " fill-opacity="1" fill-rule="nonzero"/><path fill="#e1322d" d="M 352.109375 52.789062 L 31.90625 52.789062 C 16.527344 52.789062 4.0625 65.253906 4.0625 80.632812 L 4.0625 108.476562 L 379.953125 108.476562 L 379.953125 80.632812 C 379.953125 65.253906 367.488281 52.789062 352.109375 52.789062 Z M 352.109375 52.789062 " fill-opacity="1" fill-rule="nonzero"/><path fill="#f04b37" d="M 310.34375 52.789062 L 31.90625 52.789062 C 16.527344 52.789062 4.0625 65.253906 4.0625 80.632812 L 4.0625 108.476562 L 338.1875 108.476562 L 338.1875 80.632812 C 338.1875 65.253906 325.722656 52.789062 310.34375 52.789062 Z M 310.34375 52.789062 " fill-opacity="1" fill-rule="nonzero"/><path fill="#a5c3dc" d="M 101.515625 94.554688 C 78.484375 94.554688 59.75 75.816406 59.75 52.789062 C 59.75 29.757812 78.484375 11.023438 101.515625 11.023438 C 109.203125 11.023438 115.4375 17.253906 115.4375 24.945312 C 115.4375 32.632812 109.203125 38.867188 101.515625 38.867188 C 93.839844 38.867188 87.59375 45.113281 87.59375 52.789062 C 87.59375 60.464844 93.839844 66.710938 101.515625 66.710938 C 109.203125 66.710938 115.4375 72.941406 115.4375 80.632812 C 115.4375 88.320312 109.203125 94.554688 101.515625 94.554688 Z M 101.515625 94.554688 " fill-opacity="1" fill-rule="nonzero"/><path fill="#a5c3dc" d="M 254.65625 94.554688 C 231.625 94.554688 212.890625 75.816406 212.890625 52.789062 C 212.890625 29.757812 231.625 11.023438 254.65625 11.023438 C 262.34375 11.023438 268.578125 17.253906 268.578125 24.945312 C 268.578125 32.632812 262.34375 38.867188 254.65625 38.867188 C 246.980469 38.867188 240.734375 45.113281 240.734375 52.789062 C 240.734375 60.464844 246.980469 66.710938 254.65625 66.710938 C 262.34375 66.710938 268.578125 72.941406 268.578125 80.632812 C 268.578125 88.320312 262.34375 94.554688 254.65625 94.554688 Z M 254.65625 94.554688 " fill-opacity="1" fill-rule="nonzero"/><path fill="#f04b37" d="M 171.125 359.070312 C 139.515625 359.070312 109.800781 346.761719 87.449219 324.410156 C 41.308594 278.273438 41.308594 203.195312 87.449219 157.058594 C 109.800781 134.707031 139.515625 122.398438 171.125 122.398438 C 202.734375 122.398438 232.449219 134.707031 254.800781 157.058594 C 277.152344 179.410156 289.460938 209.125 289.460938 240.734375 C 289.460938 272.34375 277.152344 302.058594 254.800781 324.410156 C 232.449219 346.761719 202.734375 359.070312 171.125 359.070312 Z M 171.125 150.242188 C 146.953125 150.242188 124.230469 159.65625 107.136719 176.746094 C 71.855469 212.03125 71.855469 269.4375 107.136719 304.722656 C 124.230469 321.8125 146.953125 331.226562 171.125 331.226562 C 195.296875 331.226562 218.019531 321.8125 235.113281 304.722656 C 252.203125 287.628906 261.617188 264.90625 261.617188 240.734375 C 261.617188 216.5625 252.203125 193.839844 235.113281 176.746094 C 218.019531 159.65625 195.296875 150.242188 171.125 150.242188 Z M 171.125 150.242188 " fill-opacity="1" fill-rule="nonzero"/><path fill="#faa019" d="M 150.242188 289.460938 C 146.679688 289.460938 143.117188 288.101562 140.398438 285.382812 L 112.554688 257.539062 C 107.117188 252.101562 107.117188 243.289062 112.554688 237.851562 C 117.992188 232.414062 126.804688 232.414062 132.242188 237.851562 L 150.242188 255.851562 L 210.007812 196.085938 C 215.445312 190.648438 224.257812 190.648438 229.695312 196.085938 C 235.132812 201.523438 235.132812 210.335938 229.695312 215.773438 L 160.085938 285.382812 C 157.367188 288.101562 153.804688 289.460938 150.242188 289.460938 Z M 150.242188 289.460938 " fill-opacity="1" fill-rule="nonzero"/></svg>