<svg id="Layer_1" enable-background="new 0 0 512 512" viewBox="0 0 512 512" xmlns="http://www.w3.org/2000/svg"><path clip-rule="evenodd" d="m256 511.44c140.724 0 255.5-114.655 255.5-255.379s-114.776-255.501-255.5-255.501-255.5 114.776-255.5 255.5 114.776 255.38 255.5 255.38z" fill="#2196f3" fill-rule="evenodd"/><path d="m386.973 192.027h-61.718c-2.915 0-5.282-2.368-5.282-5.282v-61.718c0-15.042-12.239-27.281-27.281-27.281h-73.383c-15.042 0-27.281 12.239-27.281 27.281v61.718c0 2.915-2.367 5.282-5.282 5.282h-61.718c-15.042 0-27.281 12.239-27.281 27.281v73.384c0 15.042 12.239 27.281 27.281 27.281h61.718c2.915 0 5.282 2.368 5.282 5.282v61.718c0 15.042 12.239 27.281 27.281 27.281h73.383c15.042 0 27.281-12.239 27.281-27.281v-61.718c0-2.915 2.367-5.282 5.282-5.282h61.718c15.042 0 27.281-12.239 27.281-27.281v-73.384c0-15.042-12.239-27.281-27.281-27.281zm-214.294 87.001c0 1.24-.534 2.176-1.609 2.796-1.068.62-2.156.62-3.231 0l-19.935-11.521-19.935-11.488c-1.075-.627-1.622-1.576-1.622-2.816 0-1.233.534-2.17 1.616-2.789l39.857-23.021c1.088-.62 2.189-.62 3.238-.02 1.075.626 1.622 1.576 1.622 2.822v46.037zm58.064-110.636 23.035-39.883c.613-1.068 1.543-1.602 2.783-1.602s2.17.534 2.783 1.602c0 .007.007.013.007.02l23.035 39.877c.62 1.068.62 2.143 0 3.205-.626 1.082-1.569 1.629-2.796 1.629h-46.056c-1.227 0-2.17-.547-2.803-1.642-.614-1.049-.614-2.124.012-3.206zm51.635 175.216-23.028 39.883c0 .006-.007.013-.007.02-.6 1.055-1.537 1.583-2.783 1.583s-2.176-.527-2.789-1.602l-23.041-39.903c-.613-1.055-.613-2.13.007-3.198.626-1.081 1.569-1.629 2.796-1.629h46.056c1.227 0 2.17.547 2.796 1.629.619 1.067.619 2.142-.007 3.217zm-26.378-53.277c-18.926 0-34.331-15.405-34.331-34.331s15.405-34.331 34.331-34.331 34.331 15.405 34.331 34.331-15.405 34.331-34.331 34.331zm128.045-31.515-39.883 23.008c-1.081.626-2.137.626-3.238-.013-1.062-.607-1.603-1.543-1.603-2.783v-46.036c0-1.246.547-2.189 1.603-2.803.541-.31 1.088-.468 1.635-.468.541 0 1.075.158 1.609.462l39.89 23.028c1.062.613 1.596 1.55 1.596 2.789s-.541 2.189-1.609 2.816z" fill="#fff"/></svg>