<svg height="512pt" viewBox="0 0 512 512" width="512pt" xmlns="http://www.w3.org/2000/svg"><path d="m351.332031 30v120h90v-120zm0 0" fill="#ff2b59"/><path d="m271 0-20 120h130.332031v-120zm0 0" fill="#ff4e51"/><path d="m416.667969 369-17 25.5-34.320313-51.480469-149.347656-41.476562 40 210.457031h256zm0 0" fill="#1a64b6"/><path d="m146.652344 343.019531-34.320313 51.480469-17-25.5-95.332031 143h256v-210.457031zm0 0" fill="#1e8aff"/><path d="m311.167969 424.292969 54.179687-81.273438-109.347656-164.019531-20 81.269531 20 81.273438zm0 0" fill="#89c1ff"/><path d="m256 341.542969v-162.542969l-109.347656 164.019531 54.179687 81.273438zm0 0" fill="#bfdcff"/><path d="m271 0h-15l-10 80.480469 10 121.019531h15zm0 0" fill="#ffd17e"/><path d="m241 0h15v201.5h-15zm0 0" fill="#ffeac3"/></svg>