<svg id="Layer_2" height="512" viewBox="0 0 512 512" width="512" xmlns="http://www.w3.org/2000/svg" data-name="Layer 2"><g id="Icon"><g id="_01" data-name="01"><path d="m362 0h-212c-82.84 0-150 67.16-150 150v212c0 82.84 67.16 150 150 150h212c82.84 0 150-67.16 150-150v-212c0-82.84-67.16-150-150-150zm100 362c0 55.14-44.86 100-100 100h-212c-55.14 0-100-44.86-100-100v-212c0-55.14 44.86-100 100-100h212c55.14 0 100 44.86 100 100z" fill="#1e88e5"/><g><path d="m417.5 239.83c0 13.14-10.65 23.78-23.78 23.78h-3.9v104.16c0 25.48-20.66 46.14-46.14 46.14h-175.35c-25.48 0-46.14-20.66-46.14-46.14v-104.16s-3.9 0-3.9 0c-13.14 0-23.78-10.65-23.78-23.78 0-6.68 2.81-13.05 7.74-17.55l122.63-112.12c17.63-16.12 44.64-16.12 62.27 0l122.63 112.12c4.93 4.51 7.74 10.88 7.74 17.55z" fill="#64b5f6"/><path d="m256 263.62c25.47 0 46.14 20.68 46.14 46.14v104.16h-92.28v-104.16c0-25.47 20.68-46.14 46.14-46.14z" fill="#1e88e5"/></g></g></g></svg>