<svg id="Glyph_copy_2" height="512" viewBox="0 0 64 64" width="512" xmlns="http://www.w3.org/2000/svg" xmlns:xlink="http://www.w3.org/1999/xlink" data-name="Glyph copy 2"><linearGradient id="linear-gradient" gradientUnits="userSpaceOnUse" x1="3.499" x2="60.5" y1="32.004" y2="32.004"><stop offset="0" stop-color="#0759ff"/><stop offset="1" stop-color="#00175e"/></linearGradient><path d="m47.53 4.13a194.32423 194.32423 0 0 0 -30.99-.01 13.45339 13.45339 0 0 0 -12.41 12.35 192.00144 192.00144 0 0 0 -.01 30.99 13.45345 13.45345 0 0 0 12.35 12.41 192.01593 192.01593 0 0 0 30.99.01 13.4535 13.4535 0 0 0 12.41-12.35c.42-5.14.63-10.37.63-15.53 0-5.14-.21-10.35-.62-15.46a13.45339 13.45339 0 0 0 -12.35-12.41zm2.57 37.69a9.03421 9.03421 0 0 1 -8.32 8.29 122.15007 122.15007 0 0 1 -19.6-.01 9.03422 9.03422 0 0 1 -8.29-8.32 122.14932 122.14932 0 0 1 .01-19.6 9.03421 9.03421 0 0 1 8.32-8.29 122.15933 122.15933 0 0 1 19.6.01 9.03432 9.03432 0 0 1 8.29 8.32 121.59049 121.59049 0 0 1 -.01 19.6zm-8.52-24.93a118.502 118.502 0 0 0 -19.12-.01 6.044 6.044 0 0 0 -5.57 5.54 119.064 119.064 0 0 0 -.01 19.12 6.044 6.044 0 0 0 5.54 5.57 119.66148 119.66148 0 0 0 19.12.01 6.044 6.044 0 0 0 5.57-5.54 118.502 118.502 0 0 0 .01-19.12 6.044 6.044 0 0 0 -5.54-5.57zm-1.58 24.61h-16a1.50012 1.50012 0 0 1 0-3h16a1.50012 1.50012 0 0 1 0 3zm0-8h-16a1.50012 1.50012 0 0 1 0-3h16a1.50012 1.50012 0 0 1 0 3zm0-8h-16a1.50012 1.50012 0 0 1 0-3h16a1.50012 1.50012 0 0 1 0 3z" fill="url(#linear-gradient)"/></svg>