<svg id="Layer_2" height="512" viewBox="0 0 512 512" width="512" xmlns="http://www.w3.org/2000/svg" data-name="Layer 2"><g id="Icon"><g id="_63" data-name="63"><rect id="Background" fill="#2492ff" height="512" rx="150" transform="matrix(-1 0 0 -1 512 512)" width="512"/><g fill="#fff"><path d="m111.18 141h220c13.81 0 25 11.19 25 25 0 13.81-11.19 25-25 25h-220c-13.81 0-25-11.19-25-25 0-13.81 11.19-25 25-25zm0 140h120c13.81 0 25-11.19 25-25 0-13.81-11.19-25-25-25h-120c-13.81 0-25 11.19-25 25 0 13.81 11.19 25 25 25zm0 90h220c13.81 0 25-11.19 25-25 0-13.81-11.19-25-25-25h-220c-13.81 0-25 11.19-25 25 0 13.81 11.19 25 25 25z"/><path d="m418.5 288.53-32.53-32.53 32.53-32.53c9.76-9.76 9.76-25.59 0-35.36-9.76-9.76-25.59-9.76-35.36 0l-50.21 50.21c-9.76 9.76-9.76 25.59 0 35.36l50.21 50.21c9.76 9.76 25.59 9.76 35.36 0 9.76-9.76 9.76-25.59 0-35.36z"/></g></g></g></svg>