<svg id="Capa_1" enable-background="new 0 0 512 512" height="512" viewBox="0 0 512 512" width="512" xmlns="http://www.w3.org/2000/svg" xmlns:xlink="http://www.w3.org/1999/xlink"><linearGradient id="SVGID_1_" gradientUnits="userSpaceOnUse" x1="256" x2="256" y1="512" y2="0"><stop offset="0" stop-color="#5558ff"/><stop offset="1" stop-color="#00c0ff"/></linearGradient><linearGradient id="SVGID_2_" gradientUnits="userSpaceOnUse" x1="256" x2="256" y1="451" y2="61"><stop offset="0" stop-color="#addcff"/><stop offset=".5028" stop-color="#eaf6ff"/><stop offset="1" stop-color="#eaf6ff"/></linearGradient><g id="Star_1_"><g><g><circle cx="256" cy="256" fill="url(#SVGID_1_)" r="256"/></g></g><g><g><path d="m256 61c-107.402 0-195 87.6-195 195 0 107.399 87.598 195 195 195s195-87.601 195-195c0-107.4-87.598-195-195-195zm124.797 168.6-51.299 50.399 11.704 70.5c1.198 5.7-1.201 11.4-5.702 14.702-5.73 3.821-11.472 3.73-15.901 1.199l-63.599-33.001-63.6 33.001c-5.101 2.699-11.1 2.1-15.901-1.199-4.501-3.302-6.899-9.001-5.702-14.702l11.704-70.5-51.298-50.399c-3.904-3.9-5.405-9.901-3.604-15.3 1.802-5.4 6.299-9.3 12.001-10.201l70.8-10.799 32.102-63.9c5.098-10.199 21.899-10.199 26.997 0l32.102 63.9 70.8 10.799c5.702.901 10.199 4.801 12.001 10.201 1.801 5.399.299 11.4-3.605 15.3z" fill="url(#SVGID_2_)"/></g></g></g></svg>