<svg id="Layer_2" height="512" viewBox="0 0 512 512" width="512" xmlns="http://www.w3.org/2000/svg" xmlns:xlink="http://www.w3.org/1999/xlink" data-name="Layer 2"><linearGradient id="linear-gradient" gradientUnits="userSpaceOnUse" x1="43.93" x2="468.07" y1="43.94" y2="468.07"><stop offset="0" stop-color="#64b5f6"/><stop offset="1" stop-color="#1976d2"/></linearGradient><g id="Icon"><path id="UserCircle" d="m362 0h-212c-82.84 0-150 67.16-150 150v212c0 82.84 67.16 150 150 150h212c82.84 0 150-67.16 150-150v-212c0-82.84-67.16-150-150-150zm-106 441c-102.17 0-185-82.83-185-185s82.83-185 185-185 185 82.83 185 185-82.83 185-185 185zm113.25-141.38c-7.91-24.69-34.73-37.87-59.1-29.05-14.36 5.19-32.41 9.13-54.15 9.13s-39.79-3.94-54.15-9.13c-24.37-8.82-51.19 4.36-59.1 29.05l-7.33 22.89c-2.12 6.61-.94 13.82 3.15 19.43 26.43 36.26 69.23 59.86 117.43 59.86s91-23.6 117.43-59.86c4.09-5.61 5.27-12.82 3.15-19.43zm-113.25-46.51c39.46 0 71.45-31.99 71.45-71.45s-31.99-71.46-71.45-71.46-71.45 31.99-71.45 71.46 31.99 71.45 71.45 71.45z" fill="url(#linear-gradient)"/></g></svg>